<svg xmlns="http://www.w3.org/2000/svg" width="512" height="512" viewBox="0 0 512 512"><defs><linearGradient id="a" x1="1" y1="1" x2="0" gradientUnits="objectBoundingBox"><stop offset="0" stop-color="#0073aa"/><stop offset="1" stop-color="#3c3c92"/></linearGradient><clipPath id="c"><rect width="512" height="512"/></clipPath></defs><g id="b" clip-path="url(#c)"><path d="M488,512H24A24,24,0,0,1,0,488V24A24,24,0,0,1,24,0H488a24,24,0,0,1,24,24V488a24,24,0,0,1-24,24Z" fill="url(#a)"/><path d="M311.995,141H204.842V69.569H311.995V141ZM222.7,87.424v35.71h71.426V87.424ZM186.992,141H62V69.563H186.992V141Zm125-89.276H151.282l-.005-71.437H311.995V51.719Zm-249.989,0H62V-19.724h71.416V51.7ZM79.85-1.863V33.852h35.71V-1.863Zm232.145-35.7H240.579V-109h71.416v71.421l.005.009ZM62.005-37.579H62V-109H222.708v71.41ZM79.85-91.145v35.711h125V-91.145Z" transform="translate(69.002 240.001)" fill="#fff"/></g></svg>